<svg xmlns="http://www.w3.org/2000/svg" viewBox="0 0 64 64">
  <defs>
    <linearGradient id="g" x1="0" y1="0" x2="1" y2="1">
      <stop offset="0" stop-color="#0d6efd"/>
      <stop offset="1" stop-color="#6610f2"/>
    </linearGradient>
  </defs>
  <rect width="64" height="64" rx="14" fill="url(#g)"/>
  <path d="M20 42V22h12.2c2.8 0 5 .7 6.5 2.1S41 27.3 41 30c0 2.7-.8 4.8-2.3 6.3S34.7 39 31.9 39H25.4v3H20Zm5.4-7.5h6.2c1.3 0 2.3-.3 3-.9.7-.6 1-1.5 1-2.7 0-1.2-.3-2.1-1-2.7-.7-.6-1.7-.9-3-.9h-6.2v7.2Z" fill="#fff"/>
</svg>
